<?xml version="1.0" encoding="utf-8"?>
<!-- Generator: Adobe Illustrator 19.0.0, SVG Export Plug-In . SVG Version: 6.00 Build 0)  -->
<svg version="1.1" id="图层_1" xmlns="http://www.w3.org/2000/svg" xmlns:xlink="http://www.w3.org/1999/xlink" x="0px" y="0px"
	 viewBox="0 0 32 32" style="enable-background:new 0 0 32 32;" xml:space="preserve">
<style type="text/css">
	.st0{fill:none;stroke:#FFFFFF;stroke-linecap:round;stroke-linejoin:round;stroke-miterlimit:10;}
	.st1{fill:#FFFFFF;}
	.st2{fill:none;stroke:#77818F;stroke-linecap:round;stroke-linejoin:round;stroke-miterlimit:10;}
	.st3{fill:#77818F;}
</style>
<rect x="38.4" y="45.5" class="st0" width="27" height="21"/>
<g>
	<rect x="2.5" y="45.5" class="st0" width="27" height="21"/>
	<line class="st0" x1="11.7" y1="45.6" x2="11.7" y2="66.4"/>
</g>
<rect x="5.5" y="49" class="st1" width="3" height="1"/>
<rect x="5.5" y="52" class="st1" width="3" height="1"/>
<rect x="5.5" y="55" class="st1" width="3" height="1"/>
<g>
	<rect x="-32.1" y="45.5" class="st0" width="27" height="21"/>
	<line class="st0" x1="-22.9" y1="45.6" x2="-22.9" y2="66.4"/>
	<line class="st0" x1="-14.1" y1="45.6" x2="-14.1" y2="66.4"/>
</g>
<rect x="-29.1" y="49" class="st1" width="3" height="1"/>
<rect x="-29.1" y="52" class="st1" width="3" height="1"/>
<rect x="-29.1" y="55" class="st1" width="3" height="1"/>
<rect x="-20.1" y="49" class="st1" width="3" height="1"/>
<rect x="-20.1" y="52" class="st1" width="3" height="1"/>
<rect x="-20.1" y="55" class="st1" width="3" height="1"/>
<rect x="38.4" y="5.5" class="st2" width="27" height="21"/>
<g>
	<rect x="2.5" y="5.5" class="st2" width="27" height="21"/>
	<line class="st2" x1="11.7" y1="5.6" x2="11.7" y2="26.4"/>
</g>
<rect x="5.5" y="9" class="st3" width="3" height="1"/>
<rect x="5.5" y="12" class="st3" width="3" height="1"/>
<rect x="5.5" y="15" class="st3" width="3" height="1"/>
<g>
	<rect x="-32.1" y="5.5" class="st2" width="27" height="21"/>
	<line class="st2" x1="-22.9" y1="5.6" x2="-22.9" y2="26.4"/>
	<line class="st2" x1="-14.1" y1="5.6" x2="-14.1" y2="26.5"/>
</g>
<rect x="-29.1" y="9" class="st3" width="3" height="1"/>
<rect x="-29.1" y="12" class="st3" width="3" height="1"/>
<rect x="-29.1" y="15" class="st3" width="3" height="1"/>
<rect x="-20.1" y="9" class="st3" width="3" height="1"/>
<rect x="-20.1" y="12" class="st3" width="3" height="1"/>
<rect x="-20.1" y="15" class="st3" width="3" height="1"/>
</svg>
