<?xml version="1.0" encoding="utf-8"?>
<!-- Generator: Adobe Illustrator 19.0.0, SVG Export Plug-In . SVG Version: 6.00 Build 0)  -->
<svg version="1.1" id="图层_1" xmlns="http://www.w3.org/2000/svg" xmlns:xlink="http://www.w3.org/1999/xlink" x="0px" y="0px"
	 viewBox="0 0 32 32" style="enable-background:new 0 0 32 32;" xml:space="preserve">
<style type="text/css">
	.st0{fill:none;stroke:#FFFFFF;stroke-linecap:round;stroke-linejoin:round;stroke-miterlimit:10;}
	.st1{fill:#FFFFFF;}
	.st2{fill:none;stroke:#77818F;stroke-linecap:round;stroke-linejoin:round;stroke-miterlimit:10;}
	.st3{fill:#77818F;}
</style>
<rect x="2.5" y="45.5" class="st0" width="27" height="21"/>
<g>
	<rect x="-33.4" y="45.5" class="st0" width="27" height="21"/>
	<line class="st0" x1="-24.2" y1="45.6" x2="-24.2" y2="66.4"/>
</g>
<rect x="-30.3" y="49" class="st1" width="3" height="1"/>
<rect x="-30.3" y="52" class="st1" width="3" height="1"/>
<rect x="-30.3" y="55" class="st1" width="3" height="1"/>
<g>
	<rect x="-68" y="45.5" class="st0" width="27" height="21"/>
	<line class="st0" x1="-58.8" y1="45.6" x2="-58.8" y2="66.4"/>
	<line class="st0" x1="-50" y1="45.6" x2="-50" y2="66.4"/>
</g>
<rect x="-65" y="49" class="st1" width="3" height="1"/>
<rect x="-65" y="52" class="st1" width="3" height="1"/>
<rect x="-65" y="55" class="st1" width="3" height="1"/>
<rect x="-56" y="49" class="st1" width="3" height="1"/>
<rect x="-56" y="52" class="st1" width="3" height="1"/>
<rect x="-56" y="55" class="st1" width="3" height="1"/>
<rect x="2.5" y="5.5" class="st2" width="27" height="21"/>
<g>
	<rect x="-33.4" y="5.5" class="st2" width="27" height="21"/>
	<line class="st2" x1="-24.2" y1="5.6" x2="-24.2" y2="26.4"/>
</g>
<rect x="-30.3" y="9" class="st3" width="3" height="1"/>
<rect x="-30.3" y="12" class="st3" width="3" height="1"/>
<rect x="-30.3" y="15" class="st3" width="3" height="1"/>
<g>
	<rect x="-68" y="5.5" class="st2" width="27" height="21"/>
	<line class="st2" x1="-58.8" y1="5.6" x2="-58.8" y2="26.4"/>
	<line class="st2" x1="-50" y1="5.6" x2="-50" y2="26.5"/>
</g>
<rect x="-65" y="9" class="st3" width="3" height="1"/>
<rect x="-65" y="12" class="st3" width="3" height="1"/>
<rect x="-65" y="15" class="st3" width="3" height="1"/>
<rect x="-56" y="9" class="st3" width="3" height="1"/>
<rect x="-56" y="12" class="st3" width="3" height="1"/>
<rect x="-56" y="15" class="st3" width="3" height="1"/>
</svg>
